<svg aria-hidden="true" style="position: absolute; width: 0; height: 0; overflow: hidden;" version="1.1" xmlns="http://www.w3.org/2000/svg" xmlns:xlink="http://www.w3.org/1999/xlink">
<defs>
<symbol id="icon-more-servises" viewBox="0 0 82 32">
<path d="M81.414 17.414c0.362-0.362 0.586-0.862 0.586-1.414s-0.224-1.052-0.586-1.414l-12.728-12.728c-0.364-0.377-0.874-0.611-1.439-0.611-1.105 0-2 0.895-2 2 0 0.565 0.234 1.074 0.61 1.438l0.001 0.001 11.314 11.314-11.314 11.314c-0.347 0.359-0.561 0.849-0.561 1.389 0 1.105 0.895 2 2 2 0.54 0 1.030-0.214 1.39-0.562l-0.001 0.001 12.728-12.728zM0 18h80v-4h-80v4z"></path>
</symbol>
 <symbol id="icon-bathing-icon" viewBox="0 0 32 32">
  <path d="M22.772 14.919c-0.2-0.463-0.549-1.030-1.247-1.493-0.399-0.257-1.945-0.463-1.995 0.978 0 0-0.648 0.103-0.599 0.566 0 0-0.399 1.39 1.496 1.236 0 0 0.349 2.625 0.648 3.192 0 0 0.15 0.515 0.2 1.030h0.798l0.050-1.030c0 0 0.449 0.309 0.798 1.030h1.147c-0.050-0.412-0.1-0.772-0.2-1.030 0 0 1.696 0 2.294-0.772 0 0 0.499 0.978 1.097 1.030v0.824h0.798c0.050-0.154 0.050-0.309 0.1-0.566 0 0 0.299 0.154 0.449 0.566h0.698c-0.1-0.36-0.998-3.707-1.297-3.964 0 0 0.449-0.051 0.599 0.515 0 0 0.249 1.184 0.748 1.133 0 0 0.349-0.772-0.249-1.75 0 0-0.249-0.721-1.546-0.618l-3.741-0.103c-0.499-0.103-0.848-0.412-1.047-0.772z"></path>
  <path d="M18.233 10.955c0.299-0.412 0.249-1.030-0.15-1.39-0.399-0.309-0.998-0.257-1.347 0.154-0.948 1.236-2.644 1.441-3.841 0.927l-0.648 1.853c2.045 0.824 4.539 0.412 5.986-1.544z"></path>
  <path d="M12.197 5.189c0 1.393-1.094 2.522-2.444 2.522s-2.444-1.129-2.444-2.522c0-1.393 1.094-2.523 2.444-2.523s2.444 1.129 2.444 2.523z"></path>
  <path d="M11.2 20.994l-2.095-0.875 1.247-3.655c-2.793-1.596-3.791-4.118-3.841-4.273-0.299-0.772 0.050-1.596 0.798-1.905s1.546 0.051 1.846 0.824c0.050 0.103 0.648 1.441 2.195 2.523l0.948-2.677c0.1-0.309 0.050-0.618-0.15-0.875-1.796-2.059-3.891-2.831-6.185-2.111-0.648 0.206-1.097 0.721-1.247 1.39l-1.995 10.708c0 0.051 0 0.051 0 0.103s0 0.154 0 0.206l0.1 4.891-1.097-0.257c-0.748-0.154-1.546 0.36-1.696 1.133s0.349 1.596 1.097 1.75l2.843 0.618c0.449 0.103 0.848 0 1.197-0.309s0.549-0.721 0.499-1.184l-0.1-5.148 3.641 1.493v4.479c0 0.824 0.648 1.493 1.447 1.493s1.447-0.669 1.447-1.493v-5.457c0.050-0.618-0.349-1.133-0.898-1.39z"></path>
  <path d="M15.041 15.382c-4.739-0.36-6.235-3.912-6.285-4.067-0.2-0.515-0.748-0.721-1.247-0.515s-0.698 0.772-0.499 1.287c0.1 0.206 1.995 4.839 7.931 5.302 0.549 0.051 0.998-0.36 0.998-0.927s-0.349-1.030-0.898-1.081z"></path>
  <path d="M23.57 8.69c-0.998 0.206-1.746 1.133-1.746 2.214h4.439c0-1.184-0.848-2.111-1.945-2.265-1.496-1.699-3.891-1.030-5.786 0.669 0.1 0.103 0.2 0.257 0.299 0.412 1.347-1.287 3.192-2.162 4.739-1.030z"></path>
  <path d="M31.152 20.891h-14.016c-0.399 0-0.748 0.36-0.748 0.772s0.349 0.772 0.748 0.772h0.15v1.287c0 2.008 1.596 3.655 3.542 3.655h6.734c1.945 0 3.541-1.647 3.541-3.655v-1.287h0.15c0.399 0 0.748-0.36 0.748-0.772-0.1-0.463-0.449-0.772-0.848-0.772z"></path>
  <path d="M22.223 11.933l0.050-0.463c0-0.154-0.050-0.257-0.2-0.257s-0.249 0.051-0.249 0.206l-0.050 0.463c0 0.154 0.050 0.257 0.2 0.257 0.1 0 0.2-0.103 0.249-0.206z"></path>
  <path d="M21.625 12.551l-0.050 0.463c0 0.154 0.050 0.257 0.2 0.257s0.249-0.051 0.249-0.206l0.050-0.463c0-0.154-0.050-0.257-0.2-0.257-0.1 0-0.2 0.103-0.249 0.206z"></path>
  <path d="M23.321 12.139c0.15 0 0.249-0.103 0.249-0.257v-0.515c0-0.154-0.1-0.257-0.249-0.257s-0.249 0.103-0.249 0.257v0.515c0 0.103 0.15 0.257 0.249 0.257z"></path>
  <path d="M23.021 13.066c0 0.154 0.1 0.257 0.249 0.257s0.249-0.103 0.249-0.257v-0.515c0-0.154-0.1-0.257-0.249-0.257s-0.249 0.103-0.249 0.257v0.515z"></path>
  <path d="M24.668 11.161c-0.15 0-0.249 0.103-0.249 0.257v0.515c0 0.154 0.1 0.257 0.249 0.257s0.249-0.103 0.249-0.257v-0.515c0-0.154-0.1-0.257-0.249-0.257z"></path>
  <path d="M24.518 12.602v0.515c0 0.154 0.1 0.257 0.249 0.257s0.249-0.103 0.249-0.257v-0.515c0-0.154-0.1-0.257-0.249-0.257-0.2 0-0.299 0.103-0.249 0.257z"></path>
  <path d="M25.964 11.161c-0.15 0-0.2 0.154-0.2 0.257l0.050 0.463c0 0.103 0.1 0.206 0.249 0.206s0.249-0.154 0.249-0.309l-0.1-0.412c0-0.154-0.15-0.257-0.249-0.206z"></path>
  <path d="M25.915 12.654l0.050 0.463c0 0.103 0.15 0.206 0.249 0.206 0.15 0 0.249-0.154 0.2-0.257v-0.515c0-0.154-0.15-0.206-0.249-0.206-0.15 0.051-0.249 0.154-0.249 0.309z"></path>
 </symbol>
 <symbol id="icon-training-icon" viewBox="0 0 32 32">
   <path d="M6.231 25.595l1.154-3.878-0.42-1.144c-0.891-0.149-1.626-0.597-2.098-1.193l-1.573 5.221-3.094 5.221c-0.42 0.696-0.157 1.591 0.577 1.989s1.678 0.149 2.098-0.547l3.251-5.37c0.052-0.099 0.105-0.199 0.105-0.298z"></path>
   <path d="M1.090 14.764c0.483 0.253 1.126 0.051 1.394-0.456l2.413-4.658 0.429-0.304 0.215-1.266c0.107-0.658 0.429-1.266 0.858-1.772l-2.896 1.772c-0.161 0.101-0.268 0.253-0.375 0.405l-2.521 4.911c-0.268 0.506-0.054 1.114 0.483 1.367z"></path>
   <path d="M13.292 2.704c0 1.494-1.322 2.704-2.954 2.704s-2.954-1.211-2.954-2.704c0-1.494 1.322-2.704 2.954-2.704s2.954 1.211 2.954 2.704z"></path>
   <path d="M28.969 25.59c0 0 0.052 0.050 0.052 0.1 0.418-0.249 0.575-0.797 0.575-0.797 1.569 0.448 1.883-0.946 1.883-0.946 0.209-0.398-0.837-0.797-0.837-0.797-0.052-0.996-1.255-1.295-1.255-1.295-0.575-0.498-0.418 0-0.418 0-0.575-0.050-0.942 0.149-0.942 0.149-0.942-0.847-1.517 0.448-1.517 0.448-0.157 0-0.262 0.050-0.418 0.050 0.942 1.195 1.935 2.241 2.877 3.088z"></path>
   <path d="M30.429 28.782c-0.272-0.252-2.227-1.362-2.227-1.362 0.435-0.202 0.489-1.059 0.489-1.362-1.032-0.908-2.119-2.068-3.205-3.379-0.543 0.101-4.129 1.513-7.606 0.050-1.304-0.555-2.445 0.252-2.445 0.252-0.978 1.059-0.543 2.774-0.543 2.774l1.358-1.362c0.706-0.504 0.978-0.403 1.141-0.151 0.109 0.202 0.054 0.454-0.109 0.656-1.304 1.261-0.869 2.572-0.869 2.572l-1.847 1.513c-0.706 0.706 0.109 1.261 0.109 1.261 0.163-0.555 1.467-1.412 1.467-1.412-0.054 0.656 0.272 0.807 0.272 0.807 0.924-0.252 0.706-1.11 0.706-1.11 1.467-0.050 1.63-0.656 1.63-0.656 1.467 0.252 2.173-0.656 2.173-0.656 0.38 0.656 3.694 1.362 3.694 1.362 0.217 0.101 1.467 2.421 1.467 2.421 0.272 0.050 0.543 0.403 0.543 0.403 0.598 0.353 1.847-0.050 1.847-0.050-0.109-0.454-0.761-0.454-0.761-0.454-1.467 0-1.25-2.27-1.25-2.27 0.054-0.303 1.195 0.252 1.195 0.252l2.499 0.857c1.25 0.605 1.793-0.101 1.793-0.101 0.38-0.555-1.521-0.857-1.521-0.857z"></path>
   <path d="M18.215 11.014c1.241 2.511 3.884 7.484 7.283 11.521 0.162-0.049 0.378-0.049 0.593-0.098-0.054-0.049-0.108-0.098-0.162-0.197-3.399-3.988-6.043-8.961-7.23-11.423-0.216 0.148-0.432 0.197-0.486 0.197z"></path>
   <path d="M18.48 10.434c0.543-0.2 0.869-0.748 0.652-1.247s-0.814-0.798-1.357-0.599l-2.932 0.948c-3.421-2.944-3.584-3.443-4.941-3.642-1.738-0.249-3.367 0.898-3.638 2.495l-1.303 8.382c-0.271 1.597 0.977 3.093 2.715 3.343 0.054 0 0.109 0 0.163 0l1.412 3.892-2.878 3.892c-0.489 0.649-0.326 1.597 0.434 2.046 0.706 0.449 1.738 0.299 2.226-0.399l3.366-4.49c0.271-0.399 0.38-0.848 0.217-1.297l-1.792-4.939c0.271-0.349 0.489-0.798 0.543-1.247l1.195-7.434 1.357 1.197c0.271 0.249 0.706 0.349 1.086 0.2l3.475-1.098z"></path>
 </symbol>
 <symbol id="icon-nutrition-icon" viewBox="0 0 38 32">
   <path d="M26.898 19.756c-0.898-0.177-1.786 0.409-2.162 1.425-0.073 0.197-0.122 0.401-0.151 0.608 0.927-0.554 1.737-1.222 2.436-2.009l-0.124-0.024z"></path>
   <path d="M28.796 3.739c1.096 2.065 0.619 4.829-1.065 6.173s-3.937 0.759-5.033-1.306c-1.096-2.065-0.619-4.829 1.065-6.172s3.937-0.759 5.033 1.306z"></path>
   <path d="M34.408 11.038c-1.573-2.389-3.71-2.417-4.89-1.442s-1.094 3.449-0.108 5.11c0.045 0.092 0.092 0.187 0.139 0.281 0.34-1.264 0.387-2.181 0.388-2.194 0.035-1.072 0.744-1.909 1.615-1.909 0.020 0 0.040 0 0.061 0.001 0.891 0.040 1.589 0.962 1.556 2.055v0.003l-0.001 0.018c-0.027 0.612-0.197 2.812-1.28 5.427-0.099 0.24-0.215 0.503-0.348 0.781 0.227 0.532 0.445 1.075 0.644 1.627l-1.379-0.272c-0.933 1.533-2.36 3.271-4.485 4.634l6.166 6.26c0.377 0.383 0.834 0.57 1.288 0.57 0.581 0 1.158-0.306 1.558-0.898 0.711-1.055 0.592-2.618-0.268-3.49l-1.483-1.506 0.48 0.095c0.149 0.029 0.296 0.036 0.44 0.026 0.348 0.020 0.758-0.129 1.262-0.344 1.399-0.598 2.986-1.653 2.573-4.866-0.832-4.317-1.779-6.666-3.926-9.967z"></path>
   <path d="M31.598 18.209c1.164-2.81 1.239-5.136 1.246-5.282 0.026-0.876-0.531-1.612-1.245-1.644-0.713-0.033-1.312 0.649-1.34 1.523l-0-0c-0.002 0.101-0.11 2.014-1.055 4.169-0.955 2.159-2.671 4.584-6.146 6.003-0.678 0.274-1.047 1.172-0.823 2.004 0.179 0.667 0.685 1.090 1.228 1.090 0.134 0 0.271-0.026 0.406-0.080 4.249-1.705 6.576-4.977 7.729-7.783z"></path>
   <path d="M14.561 25.755c0.588 0.137 1.296 0.363 1.483 0.606 0.504 0.652 0.75 1.998 1.403 2.093 0.456 0.066 0.617 0.054 1.182-0.394 0.558-0.443 0.028-2.166-0.105-2.828-0.189-0.94 0.261-1.972 0.268-2.035 0.006-0.052 0.394-1.050 1.515-0.671 0.392 0.133 0.162-0.755-0.451-1.198-0.729-0.527-1.257-0.281-1.79 0.232-1.029-0.966-2.642-0.778-3.559-0.357-0.147 0.732-0.203 1.441-0.203 2.093-0 0.991 0.129 1.85 0.257 2.46zM17.175 23.671c0.24-0.201 0.567-0.125 0.73 0.169s0.101 0.695-0.138 0.895c-0.24 0.201-0.567 0.125-0.731-0.169s-0.102-0.695 0.139-0.895z"></path>
   <path d="M13.846 21.18c-0.239 0.004-0.466-0.004-0.683-0.025-0.076-0.023-0.155-0.038-0.237-0.033-0.005 0-0.010 0.002-0.015 0.003-3.298-0.46-4.196-3.52-8.050-0.344-1.164-0.419-2.552-1.321-3.603-3.246-0.212-0.387-0.64-0.488-0.955-0.228-0.316 0.26-0.4 0.784-0.186 1.171 1 1.812 2.235 2.873 3.395 3.495-0.014 0.035-0.028 0.076-0.042 0.116-0.297 0.548-0.53 1.271-0.681 2.234-0.021 0.141-0.965 7.527 0.517 7.527s1.889-5.588 2.717-6.303c0.117 0.013 2.315 2.838 4.193 2.483 0.44-0.084 1.036-0.417 1.532-0.771l0.812 3.989c0.091 0.448 0.417 0.751 0.783 0.751 0.040 0 0.081-0.004 0.121-0.011 0.412-0.076 0.71-0.521 0.688-1.033l-0.211-4.967c-0.142-0.663-0.285-1.6-0.286-2.695 0-0.658 0.053-1.373 0.19-2.115z"></path>
   <path d="M21.060 30.935h-0.204l-0.417-1.583h-4.666l-0.417 1.583h-0.204c-0.164 0-0.298 0.164-0.298 0.366s0.134 0.365 0.298 0.365h5.908c0.164 0 0.298-0.164 0.298-0.365s-0.134-0.366-0.298-0.366z"></path>
 </symbol>
 <symbol id="icon-grooming-icon" viewBox="0 0 32 32">
   <path d="M21.1 9.363c-0.085-0.371-0.316-0.65-0.633-0.765-0.023-0.008-0.047-0.009-0.070-0.016 0.228-1.036 0.87-4.801-1.234-7.004-1.219-1.277-3.121-1.782-5.651-1.504-0.046-0.019-0.097-0.030-0.149-0.031-1.987-0.064-3.508 0.484-4.504 1.626-1.953 2.238-1.246 6.013-1.042 6.908-0.030 0.008-0.061 0.010-0.090 0.020-0.318 0.115-0.549 0.394-0.633 0.765-0.076 0.331-0.033 0.712 0.118 1.075 0.278 0.665 0.841 1.090 1.381 1.090 0.058 0 0.115-0.005 0.172-0.015 0.458 1.357 1.223 2.486 2.487 3.179v1.392h-0.656v3.925h7.002v-3.925h-0.657v-1.383c1.266-0.692 2.031-1.824 2.489-3.187 0.056 0.010 0.113 0.014 0.17 0.014 0.54 0 1.103-0.425 1.381-1.089 0.151-0.363 0.194-0.745 0.118-1.075zM7.814 10.22c-0.105-0.251-0.137-0.518-0.088-0.732 0.039-0.169 0.125-0.289 0.236-0.33 0.030-0.011 0.063-0.016 0.098-0.016 0.063 0 0.133 0.018 0.205 0.051 0.074 0.599 0.179 1.18 0.326 1.731-0.247-0.005-0.594-0.269-0.776-0.705zM17.312 16.684c-0.643 0.629-1.84 1.052-3.215 1.052s-2.572-0.424-3.215-1.052h0.694c0.178 0 0.323-0.135 0.323-0.301v-1.392c0.63 0.241 1.362 0.392 2.215 0.432 0.839-0.040 1.56-0.188 2.182-0.425v1.385c0 0.166 0.145 0.301 0.323 0.301h0.694zM19.296 8.874c-0.021 0.185-0.043 0.37-0.069 0.547-0.067 0.453-0.153 0.88-0.258 1.284-0.040 0.152-0.084 0.299-0.13 0.444-0.396 1.263-1.020 2.247-1.984 2.876-0.142 0.093-0.296 0.174-0.454 0.251-0.633 0.312-1.384 0.503-2.289 0.546-0.902-0.043-1.653-0.23-2.287-0.537-0.168-0.081-0.331-0.168-0.483-0.267-0.966-0.63-1.591-1.612-1.988-2.872-0.046-0.145-0.090-0.291-0.13-0.444-0.105-0.403-0.191-0.829-0.258-1.281-0.027-0.178-0.048-0.362-0.069-0.547-0.057-0.495-0.098-1.013-0.123-1.556 0.076-0.441 0.186-0.807 0.318-1.107 0.199-0.031 0.628-0.118 1.133-0.334 0.080 0.102 0.215 0.167 0.353 0.158 0.072-0.003 1.024-0.054 2.030-0.421-0.005 0.042-0.002 0.086 0.009 0.129 0.043 0.168 0.203 0.288 0.389 0.292 0.086 0.003 1.797 0.022 2.853-1.101 0.407 0.908 1.322 2.395 3.187 3.328l0.278 0.357c-0.009 0.087-0.020 0.17-0.030 0.256zM20.379 10.22c-0.182 0.435-0.527 0.699-0.774 0.704 0.146-0.552 0.25-1.132 0.324-1.731 0.072-0.033 0.142-0.050 0.205-0.050 0.035 0 0.068 0.005 0.098 0.016 0.152 0.055 0.213 0.23 0.236 0.33 0.049 0.214 0.016 0.481-0.089 0.732zM13.364 11.002v-0.843c0-0.166 0.145-0.301 0.323-0.301s0.323 0.135 0.323 0.301v0.775h0.497c0.178 0 0.323 0.135 0.323 0.301s-0.145 0.301-0.323 0.301h-0.57c-0.316 0-0.573-0.239-0.573-0.533zM11.819 9.069c0 0.323-0.282 0.585-0.629 0.585s-0.629-0.262-0.629-0.585c0-0.323 0.282-0.585 0.629-0.585s0.629 0.262 0.629 0.585zM17.633 9.069c0 0.323-0.282 0.585-0.629 0.585s-0.629-0.262-0.629-0.585c0-0.323 0.282-0.585 0.629-0.585s0.629 0.262 0.629 0.585zM15.679 12.854c0 0.485-0.817 0.658-1.582 0.658s-1.582-0.173-1.582-0.658c0-0.166 0.145-0.301 0.323-0.301 0.144 0 0.266 0.088 0.308 0.209 0.108 0.060 0.448 0.149 0.951 0.149s0.843-0.089 0.951-0.149c0.042-0.121 0.164-0.209 0.308-0.209 0.178 0 0.323 0.135 0.323 0.301zM31.891 22.231c-0.093-0.152-0.237-0.265-0.409-0.331 0.027-0.165 0-0.339-0.095-0.496-0.093-0.152-0.237-0.265-0.409-0.33 0.027-0.165 0-0.339-0.095-0.496s-0.243-0.267-0.409-0.33c0.027-0.165 0.001-0.34-0.095-0.496-0.11-0.18-0.288-0.308-0.502-0.363-0.212-0.054-0.437-0.029-0.63 0.073l-0.328 0.173c-0.062-0.095-0.145-0.18-0.246-0.252v-0.329h1.831c0.178 0 0.323-0.135 0.323-0.301s-0.145-0.301-0.323-0.301h-1.831v-0.301h1.831c0.178 0 0.323-0.135 0.323-0.301s-0.145-0.301-0.323-0.301h-1.831v-0.301h1.831c0.178 0 0.323-0.135 0.323-0.301s-0.145-0.301-0.323-0.301h-1.831v-0.301h1.831c0.178 0 0.323-0.135 0.323-0.301s-0.145-0.301-0.323-0.301h-1.831l0.002-0.301h1.829c0.178 0 0.323-0.135 0.323-0.301s-0.145-0.301-0.323-0.301h-1.829c-0.364 0-0.648 0.308-0.648 0.701v1.448c-0.028-0.342-0.164-0.685-0.404-0.98-0.59-0.728-1.602-0.947-2.253-0.489-0.34 0.239-0.512 0.615-0.519 1.023-0.424-0.105-0.861-0.054-1.2 0.184-0.327 0.23-0.519 0.603-0.526 1.023-0.006 0.389 0.141 0.789 0.415 1.127s0.648 0.579 1.052 0.68c0.135 0.034 0.27 0.050 0.402 0.050 0.295 0 0.573-0.082 0.799-0.241 0.021-0.015 0.037-0.035 0.057-0.051l1.014 1.131-0.366 0.734c-0.028 0.045-0.053 0.091-0.076 0.139l-2.131 1.125-3.636-5.555c-0.089-0.136-0.198-0.253-0.314-0.36-0.192-0.231-0.47-0.396-0.793-0.449-0.314-0.097-0.648-0.128-0.98-0.076v4.029c0.079 0.023 0.152 0.056 0.216 0.101 0.119 0.083 0.206 0.2 0.242 0.338l1.59 6.197v-2.518l1.211 1.851c0.385 0.588 1.058 0.914 1.75 0.914 0.343 0 0.69-0.080 1.008-0.249l3.88-2.048c0.016-0.008 0.028-0.020 0.044-0.029 0.030 0.002 0.061 0.006 0.091 0.006 0.252 0 0.508-0.059 0.743-0.183l0.729-0.385 0.045 0.050c0.147 0.164 0.407 0.192 0.591 0.063l0.407-0.286c0.134-0.094 0.185-0.254 0.148-0.409l0.317-0.168c0.193-0.102 0.331-0.267 0.39-0.467s0.031-0.407-0.079-0.586zM30.011 20.843l0.059-0.031c0.028-0.014 0.059-0.022 0.090-0.022 0.016 0 0.033 0.002 0.049 0.006 0.048 0.012 0.087 0.041 0.111 0.080 0.050 0.082 0.019 0.187-0.069 0.233l-0.846 0.447c-0.043 0.022-0.092 0.027-0.139 0.016s-0.087-0.041-0.111-0.080c-0.050-0.082-0.019-0.187 0.069-0.233l0.787-0.416zM28.973 20.375l0.008-0.016c0.006-0.012 0.008-0.025 0.013-0.037 0.006-0.014 0.010-0.028 0.015-0.043l0.556-0.294c0.028-0.015 0.059-0.022 0.090-0.022 0.016 0 0.033 0.002 0.049 0.006 0.048 0.012 0.087 0.041 0.111 0.080 0.031 0.051 0.028 0.11 0.002 0.159-0.016 0.030-0.038 0.057-0.071 0.075l-0.846 0.447c-0.035 0.018-0.075 0.022-0.115 0.018l0.187-0.373zM25.273 18.735c-0.156 0.109-0.355 0.082-0.459 0.056-0.216-0.054-0.43-0.196-0.587-0.389s-0.244-0.423-0.241-0.632c0.002-0.101 0.028-0.286 0.184-0.396 0.078-0.055 0.175-0.081 0.279-0.081 0.253 0 0.555 0.152 0.767 0.413 0.299 0.369 0.325 0.839 0.058 1.027zM25.946 17.194c-0.299-0.368-0.325-0.839-0.057-1.027 0.078-0.055 0.174-0.081 0.279-0.081 0.253 0 0.555 0.153 0.767 0.414 0.157 0.193 0.245 0.423 0.242 0.631-0.002 0.101-0.028 0.286-0.184 0.396s-0.355 0.082-0.46 0.056c-0.216-0.054-0.43-0.196-0.587-0.389zM26.778 19.61c-0.147-0.182-0.109-0.44 0.087-0.577s0.473-0.101 0.62 0.081c0.052 0.064 0.072 0.137 0.080 0.21-0.121 0.073-0.223 0.172-0.287 0.298l-0.070 0.141c-0.158 0.026-0.326-0.025-0.43-0.153zM29.319 23.741l-0.296 0.156c-0.413 0.219-0.942 0.083-1.177-0.301l-0.799-1.308c-0.114-0.187-0.143-0.403-0.082-0.61l0.004-0.007 0.896-1.795c0.023-0.045 0.085-0.075 0.162-0.081 0.057-0.005 0.121 0.001 0.187 0.030s0.113 0.071 0.145 0.114c0.007 0.010 0.016 0.019 0.021 0.029 0.027 0.050 0.034 0.1 0.015 0.138l-0.793 1.584c-0.013 0.025-0.015 0.052-0.020 0.078-0.023 0.13 0.042 0.263 0.177 0.322 0.044 0.019 0.090 0.028 0.136 0.028s0.090-0.012 0.132-0.029v1.428c0 0.166 0.145 0.301 0.323 0.301s0.323-0.135 0.323-0.301v-1.043l0.979 1.092-0.332 0.176zM29.91 22.382c-0.043 0.022-0.093 0.029-0.139 0.016s-0.087-0.041-0.111-0.080c-0.050-0.082-0.019-0.187 0.069-0.233l0.846-0.447c0.028-0.015 0.059-0.022 0.090-0.022 0.016 0 0.033 0.002 0.049 0.006 0.047 0.012 0.087 0.041 0.111 0.080 0.050 0.082 0.019 0.187-0.069 0.233l-0.846 0.447zM31.347 22.658c-0.013 0.044-0.044 0.081-0.086 0.103 0 0 0 0-0 0l-0.845 0.447c-0.038 0.021-0.081 0.024-0.122 0.018-0.052-0.009-0.101-0.036-0.129-0.082-0.050-0.082-0.019-0.187 0.069-0.233l0.846-0.447c0.028-0.014 0.059-0.022 0.090-0.022 0.005 0 0.010 0.002 0.015 0.002 0.011 0.001 0.023 0.002 0.034 0.004 0.048 0.012 0.087 0.041 0.112 0.081s0.030 0.085 0.017 0.13zM20.551 31.361l-0.18-3.894c-0.001-0.010-0.002-0.020-0.005-0.031l-1.761-6.865c-0.006-0.026-0.020-0.049-0.038-0.070-0.048-0.057-0.131-0.094-0.224-0.094h-8.492c-0.093 0-0.176 0.037-0.225 0.094-0.018 0.021-0.032 0.044-0.038 0.070l-1.546 6.030-0.241-0.126c-0.051-0.026-0.102-0.047-0.152-0.068l1.52-5.928c0.035-0.138 0.123-0.255 0.242-0.338 0.064-0.044 0.137-0.078 0.215-0.1v-4.014c-0.754-0.227-1.614-0.035-2.17 0.555l-6.948 7.366c-0.385 0.409-0.565 0.951-0.493 1.49s0.389 1.025 0.87 1.333l3.986 2.555c0.124 0.080 0.256 0.14 0.391 0.191 0.163 0.174 0.357 0.323 0.577 0.437l1.815 0.941c0.004 0.002 0.008 0.002 0.011 0.004l-0.022 0.464-0.020 0.431c-0.003 0.059 0.029 0.102 0.056 0.128 0.051 0.050 0.129 0.079 0.211 0.079h12.414c0.083 0 0.16-0.029 0.212-0.079 0.027-0.026 0.058-0.070 0.056-0.128l-0.020-0.431zM5.103 24.849l2.477-2.625v4.154c-0.081-0.031-0.163-0.055-0.244-0.076-0.048-0.037-0.089-0.078-0.141-0.112l-2.091-1.341zM9.953 28.41c-0.029 0.049-0.098 0.067-0.15 0.040-0 0-0 0-0 0l-1.469-0.761c-0.082-0.042-0.177-0.040-0.264-0.008-0.079 0.028-0.149 0.080-0.191 0.149s-0.053 0.152-0.029 0.229c0.023 0.077 0.079 0.142 0.154 0.181l0.001 0.001 1.759 0.912c0.034 0.018 0.047 0.046 0.052 0.061s0.010 0.046-0.009 0.078c-0.019 0.032-0.049 0.043-0.066 0.048s-0.050 0.009-0.084-0.009l-1.76-0.913c-0.036-0.018-0.075-0.027-0.114-0.030-0.070-0.005-0.14 0.015-0.203 0.049-0.006 0.003-0.012 0.006-0.018 0.009-0.048 0.030-0.092 0.066-0.12 0.112-0.042 0.070-0.052 0.152-0.029 0.229 0.020 0.066 0.067 0.119 0.126 0.159 0.010 0.007 0.017 0.016 0.028 0.022l0.013 0.007 0.015 0.008 1.441 0.747c0.034 0.018 0.047 0.046 0.052 0.062s0.010 0.045-0.009 0.078c-0.019 0.032-0.049 0.044-0.066 0.048s-0.049 0.009-0.084-0.009l-1.633-0.846c-0.102-0.053-0.259-0.032-0.359 0.025-0.097 0.056-0.155 0.156-0.152 0.262 0.002 0.056 0.022 0.108 0.053 0.154 0.028 0.041 0.066 0.077 0.113 0.101l1.125 0.583c0.034 0.018 0.047 0.046 0.052 0.061s0.010 0.046-0.009 0.078c-0.029 0.049-0.098 0.068-0.15 0.040l-1.815-0.941c-0.301-0.156-0.538-0.405-0.667-0.702-0.175-0.402-0.155-0.841 0.053-1.175 0.253-0.406 0.74-0.707 1.282-0.707 0.22 0 0.448 0.051 0.674 0.162 0.006 0.003 0.013 0.005 0.019 0.009l2.395 1.256c0.034 0.018 0.047 0.047 0.052 0.062s0.010 0.046-0.009 0.077zM17.943 26.919c-0.009 0.528-0.557 0.759-0.836 0.351l-0.281-0.41c-0.075 0.243-0.188 0.471-0.336 0.679 0.001 0.032 0.005 0.064 0.005 0.097 0 1.363-1.073 2.468-2.398 2.468s-2.398-1.105-2.398-2.468c0-0.033 0.004-0.064 0.005-0.097-0.147-0.208-0.261-0.436-0.336-0.679l-0.281 0.41c-0.279 0.408-0.827 0.177-0.837-0.351-0.004-0.247-0.014-0.503-0.031-0.754-0.061-0.881 1.229-1.295 1.81-1.436 0.517-0.346 1.251-0.501 2.068-0.501s1.551 0.156 2.068 0.501c0.581 0.141 1.871 0.555 1.81 1.436-0.018 0.251-0.027 0.507-0.032 0.754zM13.114 28.749c0-0.371 0.44-0.672 0.983-0.672s0.983 0.301 0.983 0.672c0 0.371-0.44 0.672-0.983 0.672s-0.983-0.301-0.983-0.672z"></path>
 </symbol>
 <symbol id="icon-food-icon" viewBox="0 0 48 32">
   <path d="M45.37 13.333c-0.052-1.992-2.005-3.973-5.918-5.333 0.267-0.547 0-0.726 0-1.333 0-2.356-2.048-4.667-4.603-4.667-0.576 0-0.778 0.473-1.315 0.667-0.86-0.97-2.435-1.333-3.945-1.333-0.684 0-1.354-0.232-1.973 0-1.076-0.891-2.414-1.333-3.945-1.333-2.063 0-4.235 1.21-5.26 2.667-2.426-0.265-4.432 0.263-5.26 2-2.034 0.036-3.69 1.536-3.945 3.333-4.239 1.378-6.52 3.252-6.575 5.333l-2.63 10v0.667c0 4.649 10.871 8 24.329 8s23.671-3.352 23.671-8l-2.63-10.667zM13.151 6h0.658v-0.667c0.521-1.382 2.061-2 3.945-2 0.265 0 0.383-0.041 0.658 0h0.658c0.832-1.345 2.721-2.667 4.603-2.667 1.422 0 2.353 0.473 3.288 1.333l0.658 0.667v-0.667c0.578-0.252 1.308 0 1.973 0 1.378 0 2.617 0.424 3.288 1.333h0.658c0.52-0.227 0.747 0 1.315 0 2.090 0 3.945 1.449 3.945 3.333 0 0.618-0.308 0.805-0.658 1.333-0.001 0.001 0.001 0.665 0 0.667v0.667h0.658c1.651 0.228 2.63 1.13 2.63 2 0 0.523-0.316 0.431-0.658 0.667l-1.315 0.667 1.315 0.667c0.742 0.345 0.658 0.742 0.658 1.333 0 0.881-1.677 2-3.288 2-0.735 0.252-1.197 0.461-1.973 0.667-3.297 0.868-7.208 1.333-11.178 1.333-6.791 0-12.484-1.499-14.466-2-0.457-0.115-0.645 0.004-0.658 0-1.804 0-3.288-1.716-3.288-3.333s1.484-2.667 3.288-2.667h0.658v-0.667c-0.212-0.39-0.658-0.908-0.658-1.333 0.168-1.438 1.617-2.667 3.288-2.667zM9.205 9.333c-2.144 0.129-3.945 1.996-3.945 4 0 2.069 2.361 3.971 4.603 4 0.103 0.029 0.304-0.089 0.658 0 2.025 0.512 7.59 2 14.466 2 4.966 0 9.224-0.664 13.151-2 1.944-0.027 4.603-1.159 4.603-2.667 0-0.185 0.048-0.49 0-0.667-0.143-0.529-0.799-0.962-1.315-1.333 0.512-0.46 0.658-0.755 0.658-1.333 0-0.041 0.003-0.625 0-0.667 1.58 0.945 2.63 1.619 2.63 2.667 0 3.18-8.721 6.667-21.041 6.667s-20.384-3.487-20.384-6.667c0-1.647 2.224-2.757 5.918-4zM23.671 31.333c-12.498 0-22.924-3.323-23.014-7.333l2.63-8.667c2.022 3.392 9.916 6 20.384 6s19.020-2.607 21.041-6l2.63 8.667c-0.090 4.010-11.173 7.333-23.671 7.333z"></path>
   <path d="M30.904 24c0-1.13-0.88-2-1.973-2-1.057 0-1.921 0.919-1.973 2h-6.575c-0.052-1.081-0.915-2-1.973-2-1.091 0-1.973 0.87-1.973 2 0 0.659 0.189 0.959 0.658 1.333-0.468 0.375-0.658 1.342-0.658 2 0 1.13 0.881 2 1.973 2 1.058 0 1.921-0.919 1.973-2h6.575c0.052 1.081 0.916 2 1.973 2 1.092 0 1.973-0.87 1.973-2 0-0.658-0.19-1.625-0.658-2 0.467-0.375 0.658-0.674 0.658-1.333zM30.247 27.333c0 0.658-0.679 1.333-1.315 1.333-0.635 0-1.315-0.675-1.315-1.333v-0.667h-7.89v0.667c0 0.658-0.679 1.333-1.315 1.333s-1.315-0.675-1.315-1.333c0-0.657 0.679-1.333 1.315-1.333v-0.667c-0.636 0-1.315-0.677-1.315-1.333 0-0.658 0.679-1.333 1.315-1.333s1.315 0.675 1.315 1.333v0.667h7.89v-0.667c0-0.658 0.68-1.333 1.315-1.333 0.636 0 1.315 0.675 1.315 1.333 0 0.657-0.679 1.333-1.315 1.333v0.667c0.637-0.001 1.315 0.676 1.315 1.333z"></path>
 </symbol>
 <symbol id="icon-play-icon" viewBox="0 0 32 32">
   <path d="M22.809 15.271c-0.019 0.197-0.138 0.412-0.414 0.631-2.703 2.145-5.406 4.29-8.109 6.434-0.577 0.458-1.947 0.565-1.947-0.513 0-3.969 0-7.938 0-11.906 0-0.975 1.47-1.215 2.058-0.818 2.703 1.824 5.406 3.648 8.109 5.472 0.31 0.209 0.377 0.459 0.302 0.7zM32 18.654c-0.857 20.541-35.471 16.286-31.715-5.337 1.576-9.073 9.11-13.845 17.388-13.27 9.318 0.647 14.158 9.123 14.326 18.471 0 0.024-0.015 0.043-0.018 0.066 0.003 0.025 0.020 0.042 0.019 0.070zM30.263 18.92c-0.141-6.617-2.487-13.763-8.542-16.608-8.024-3.77-17.479 0.676-19.518 9.838-1.824 8.194 2.232 15.459 9.654 18.087 7.911 2.801 17.973-1.607 18.406-11.318z"></path>
 </symbol>
<symbol id="icon-icon-dog-paw" viewBox="0 0 33 32">
<path d="M15.586 15.256c1.12 3.361 4.414 2.987 8.136 5.103 5.47 2.988 8.673 0.872 8.488-2.24-0.187-2.988-3.806-4.232-4.815-7.221-1.008-2.987 1.16-6.473-0.443-8.962-1.602-2.49-5.368-1.992-7.928 3.983-1.71 4.108-4.44 5.975-3.436 9.336zM16.116 24.264c1.797-2.712 4.742-4.069 6.359-2.837 1.618 1.234 1.566 4.44-0.35 7.276-1.797 2.714-4.741 4.071-6.359 2.837s-1.448-4.44 0.35-7.276zM10.815 7.889c3.007 0.984 5.929 0 6.544-2.091s-1.323-4.552-4.331-5.413c-3.007-0.984-5.93 0-6.545 2.091-0.613 1.969 1.325 4.43 4.332 5.413zM7.506 19.041c3.032-1.705 6.396-1.583 7.447 0.366s-0.561 4.996-3.593 6.702c-3.032 1.705-6.396 1.583-7.447-0.366-0.93-1.95 0.559-4.874 3.593-6.702zM7.133 17.163c3.381-0.604 5.943-2.781 5.619-5.078-0.327-2.177-3.314-3.507-6.815-2.903-3.381 0.605-5.943 2.781-5.619 5.079 0.327 2.177 3.435 3.507 6.815 2.903z"></path>
</symbol>
 <symbol id="icon-slider-ellipse-icon" viewBox="0 0 32 32">
   <path d="M32 16c0 8.837-7.163 16-16 16s-16-7.163-16-16c0-8.837 7.163-16 16-16s16 7.163 16 16z"></path>
 </symbol>
 <symbol id="icon-mail-icon" viewBox="0 0 32 32">
   <path d="M16 29.334c-1.822 0-3.544-0.35-5.167-1.051-1.622-0.699-3.039-1.655-4.249-2.867-1.212-1.211-2.167-2.627-2.867-4.249s-1.051-3.344-1.051-5.167c0-1.845 0.35-3.572 1.051-5.183 0.7-1.612 1.655-3.023 2.867-4.233s2.627-2.167 4.249-2.868c1.622-0.699 3.344-1.049 5.167-1.049 1.844 0 3.572 0.35 5.183 1.049s3.023 1.657 4.233 2.868c1.212 1.211 2.167 2.622 2.867 4.233s1.051 3.338 1.051 5.183v1.933c0 1.311-0.45 2.428-1.349 3.349-0.901 0.923-2.006 1.384-3.317 1.384-0.8 0-1.544-0.178-2.233-0.533s-1.256-0.822-1.7-1.4c-0.6 0.6-1.305 1.073-2.116 1.417s-1.684 0.516-2.617 0.516c-1.845 0-3.416-0.65-4.716-1.951s-1.951-2.872-1.951-4.716 0.65-3.417 1.951-4.717c1.3-1.3 2.872-1.949 4.716-1.949s3.417 0.65 4.717 1.949c1.3 1.301 1.949 2.873 1.949 4.717v1.933c0 0.645 0.2 1.15 0.6 1.516s0.867 0.55 1.4 0.55c0.533 0 1-0.184 1.4-0.55s0.6-0.872 0.6-1.516v-1.933c0-2.911-1.050-5.417-3.151-7.517-2.1-2.099-4.605-3.149-7.516-3.149s-5.417 1.050-7.517 3.149c-2.1 2.101-3.149 4.606-3.149 7.517s1.050 5.416 3.149 7.516c2.1 2.1 4.606 3.151 7.517 3.151h6.667v2.667h-6.667zM16 20c1.111 0 2.055-0.389 2.833-1.166s1.167-1.722 1.167-2.834-0.389-2.055-1.167-2.833c-0.778-0.778-1.722-1.167-2.833-1.167s-2.056 0.389-2.833 1.167c-0.778 0.778-1.167 1.722-1.167 2.833s0.389 2.056 1.167 2.834c0.778 0.778 1.722 1.166 2.833 1.166z"></path>
 </symbol>
 <symbol id="icon-phone-icon" viewBox="0 0 32 32">
   <path d="M27.833 29.334c-3.467 0-6.728-0.655-9.783-1.967-3.056-1.311-5.723-3.105-8-5.383s-4.078-4.945-5.4-8c-1.323-3.056-1.984-6.329-1.984-9.817-0.022-0.4 0.111-0.75 0.4-1.051s0.645-0.449 1.067-0.449h5.2c0.4 0 0.744 0.15 1.033 0.449s0.433 0.662 0.433 1.084c0 0.978 0.067 1.9 0.2 2.767s0.345 1.689 0.633 2.467c0.111 0.245 0.133 0.494 0.067 0.75s-0.2 0.495-0.4 0.717l-3.333 3.333c0.956 1.956 2.311 3.811 4.067 5.567s3.645 3.156 5.667 4.2l3.333-3.333c0.2-0.2 0.433-0.333 0.7-0.4s0.533-0.044 0.8 0.067c0.822 0.267 1.672 0.472 2.549 0.616 0.878 0.145 1.784 0.217 2.717 0.217 0.422 0 0.784 0.156 1.084 0.467s0.449 0.689 0.449 1.134v5.1c0 0.4-0.144 0.744-0.433 1.033s-0.644 0.433-1.067 0.433zM20.167 25.334c1 0.378 2.044 0.678 3.133 0.9s2.211 0.367 3.367 0.433v-2.867c-0.689-0.044-1.394-0.122-2.116-0.233s-1.44-0.278-2.151-0.5l-2.233 2.267zM26.667 16c0-2.978-1.033-5.5-3.1-7.567s-4.589-3.1-7.567-3.1v-2.667c1.845 0 3.578 0.35 5.2 1.049s3.033 1.651 4.233 2.851c1.2 1.2 2.15 2.611 2.849 4.233s1.051 3.355 1.051 5.2h-2.667zM21.333 16c0-1.467-0.522-2.722-1.567-3.767s-2.3-1.567-3.767-1.567v-2.667c2.222 0 4.111 0.778 5.667 2.334s2.333 3.444 2.333 5.666h-2.667zM6.667 11.767l2.2-2.233c-0.178-0.645-0.328-1.322-0.451-2.033s-0.205-1.433-0.249-2.167h-2.8c0.044 1.067 0.178 2.133 0.4 3.2s0.522 2.145 0.9 3.233z"></path>
 </symbol>
 <symbol id="icon-dogs-name-icon" viewBox="0 0 32 32">
   <path d="M6.467 29.334v-12.8l-0.367-0.367c-0.245-0.244-0.433-0.533-0.567-0.867s-0.2-0.678-0.2-1.033c0-0.356 0.067-0.694 0.2-1.016s0.322-0.606 0.567-0.851l4.367-4.4h5.333l5.333-5.333 2.733 2.733c0.889 0.889 1.578 1.894 2.067 3.016s0.733 2.317 0.733 3.584c0 1.267-0.244 2.461-0.733 3.584s-1.178 2.127-2.067 3.016l-2.733 2.733v8h-14.667zM9.133 26.667h9.333v-6.433l3.5-3.5c0.645-0.645 1.145-1.367 1.5-2.167s0.533-1.656 0.533-2.567c0-0.889-0.183-1.733-0.551-2.533-0.366-0.8-0.86-1.522-1.483-2.167l-0.833-0.867-4.233 4.233h-5.333l-0.767 0.767 2.233 2.233c0.622 0.622 1.106 1.339 1.451 2.149s0.516 1.662 0.516 2.55-0.167 1.739-0.5 2.551c-0.333 0.811-0.822 1.538-1.467 2.183l-3.9-3.9v7.466z"></path>
 </symbol>
 <symbol id="icon-user-name-icon" viewBox="0 0 32 32">
<path d="M11.384 9.714c0-1.125 0.446-2.204 1.24-3 0.766-0.768 1.825-1.242 2.995-1.242s2.229 0.475 2.995 1.242l0 0c0.767 0.768 1.241 1.829 1.241 3s-0.474 2.232-1.241 3l0-0c-0.766 0.767-1.825 1.242-2.995 1.242s-2.229-0.475-2.995-1.242l-0-0c-0.766-0.768-1.24-1.828-1.24-2.999 0-0 0-0.001 0-0.001v0zM15.619 3.048c-1.838 0-3.502 0.746-4.706 1.952l-0 0c-1.205 1.207-1.95 2.873-1.95 4.714s0.745 3.507 1.95 4.714l-0-0c1.204 1.206 2.868 1.951 4.706 1.951s3.502-0.746 4.706-1.951l0-0c1.205-1.207 1.95-2.873 1.95-4.714s-0.745-3.507-1.95-4.714l0 0c-1.204-1.206-2.868-1.952-4.706-1.952h-0zM5.333 22.442c0-0.965 0.383-1.89 1.064-2.572 0.657-0.658 1.564-1.065 2.567-1.065h13.31c1.003 0 1.911 0.407 2.568 1.065l0 0c0.657 0.658 1.063 1.567 1.063 2.571 0 0 0 0.001 0 0.001v-0 0.274c-0.003 0.123-0.011 0.24-0.026 0.355l0.002-0.017c-0.025 0.21-0.070 0.494-0.158 0.831-0.25 0.937-0.666 1.755-1.22 2.46l0.011-0.015c-1.415 1.82-4.079 3.384-8.895 3.384s-7.478-1.563-8.895-3.384c-0.543-0.69-0.96-1.508-1.199-2.398l-0.011-0.047c-0.086-0.316-0.149-0.688-0.176-1.069l-0.001-0.019c-0.001-0.022-0.002-0.051-0.002-0.079l-0-0.002v-0.029l-0.002-0.009v-0.236zM7.753 22.657v0.015c0.017 0.204 0.052 0.406 0.103 0.603 0.11 0.422 0.33 0.992 0.776 1.565 0.853 1.096 2.728 2.45 6.987 2.45s6.135-1.354 6.987-2.448c0.362-0.464 0.625-0.997 0.775-1.567 0.052-0.197 0.086-0.4 0.104-0.603v-0.23c-0.001-0.668-0.542-1.21-1.21-1.212h-13.31c0 0 0 0 0 0-0.668 0-1.21 0.542-1.21 1.21 0 0.001 0 0.001 0 0.002v-0 0.215z"></path>
</symbol>
 <symbol id="icon-checkbox-icon" viewBox="0 0 32 32">
   <path d="M1.092 15.682c4.459 4.825 8.783 9.169 12.939 14.662 4.519-8.987 9.144-18.006 16.775-27.773l-2.057-0.941c-6.443 6.834-11.45 13.303-15.8 20.99-3.025-2.726-7.914-6.581-10.899-8.563l-0.959 1.625z"></path>
 </symbol>
 <symbol id="icon-Arrow-1" viewBox="0 0 41 32">
<path d="M5.809 16l11.89-11.89c0.951-0.951 0.951-2.446 0-3.397s-2.446-0.951-3.397 0l-13.588 13.588c-0.951 0.951-0.951 2.446 0 3.397l13.588 13.588c0.951 0.951 2.446 0.951 3.397 0s0.951-2.446 0-3.397l-11.89-11.89z"></path>
<path d="M40.845 13.598v4.804h-38.433v-4.804h38.433zM5.809 16l11.89-11.89c0.951-0.951 0.951-2.446 0-3.397s-2.446-0.951-3.397 0l-13.588 13.588c-0.951 0.951-0.951 2.446 0 3.397l13.588 13.588c0.951 0.951 2.446 0.951 3.397 0s0.951-2.446 0-3.397l-11.89-11.89z"></path>
</symbol>
 <symbol id="icon-facebook-icon" viewBox="0 0 32 32">
   <path d="M29 16c0-2.571-0.762-5.085-2.191-7.222s-3.459-3.804-5.834-4.788c-2.375-0.984-4.989-1.241-7.511-0.74s-4.838 1.74-6.656 3.558-3.056 4.134-3.558 6.656c-0.502 2.522-0.244 5.136 0.74 7.511s2.65 4.406 4.788 5.834c2.138 1.428 4.651 2.191 7.222 2.191 3.447-0.003 6.751-1.374 9.189-3.811s3.808-5.742 3.811-9.189zM17 26.95v-7.95h3c0.265 0 0.52-0.105 0.707-0.293s0.293-0.442 0.293-0.707-0.105-0.52-0.293-0.707c-0.188-0.188-0.442-0.293-0.707-0.293h-3v-3c0-0.53 0.211-1.039 0.586-1.414s0.884-0.586 1.414-0.586h2c0.265 0 0.52-0.105 0.707-0.293s0.293-0.442 0.293-0.707-0.105-0.52-0.293-0.707c-0.188-0.188-0.442-0.293-0.707-0.293h-2c-1.060 0.003-2.075 0.426-2.825 1.175s-1.172 1.765-1.175 2.825v3h-3c-0.265 0-0.52 0.105-0.707 0.293s-0.293 0.442-0.293 0.707 0.105 0.52 0.293 0.707c0.188 0.188 0.442 0.293 0.707 0.293h3v7.95c-2.819-0.257-5.43-1.592-7.291-3.725s-2.827-4.902-2.698-7.73c0.129-2.828 1.343-5.497 3.389-7.453s4.768-3.047 7.599-3.047 5.553 1.091 7.599 3.047c2.047 1.955 3.261 4.625 3.389 7.453s-0.838 5.596-2.698 7.73c-1.86 2.133-4.472 3.468-7.291 3.725z"></path>
 </symbol>
 <symbol id="icon-instagram-icon" viewBox="0 0 32 32">
   <path stroke-linejoin="round" stroke-linecap="butt" stroke-miterlimit="4" stroke-width="2.1" d="M19.771 19.771c1-1 1.562-2.357 1.562-3.771s-0.562-2.771-1.562-3.771c-1-1-2.357-1.562-3.771-1.562s-2.771 0.562-3.771 1.562c-1 1-1.562 2.357-1.562 3.771s0.562 2.771 1.562 3.771c1 1 2.357 1.562 3.771 1.562s2.771-0.562 3.771-1.562z"></path>
   <path stroke-linejoin="miter" stroke-linecap="butt" stroke-miterlimit="4" stroke-width="2.1" d="M4 10.667c0-1.768 0.702-3.464 1.953-4.714s2.946-1.953 4.714-1.953h10.667c1.768 0 3.464 0.702 4.714 1.953s1.953 2.946 1.953 4.714v10.667c0 1.768-0.702 3.464-1.953 4.714s-2.946 1.953-4.714 1.953h-10.667c-1.768 0-3.464-0.702-4.714-1.953s-1.953-2.946-1.953-4.714v-10.667z"></path>
   <path stroke-linejoin="round" stroke-linecap="round" stroke-miterlimit="4" stroke-width="2.1" d="M23.333 8.681l0.014-0.015"></path>
 </symbol>
 <symbol id="icon-bcg-arrow" viewBox="0 0 41 32">
   <path d="M8.202 25.214c1.286-8.447 8.305-15.317 15.453-15.307 0.042 0.216 0.135 0.488 0.067 0.697-1.152 3.553 0.384 6.311 2.874 8.754 1.917 1.929 4.13 3.503 6.776 4.304 0.757 0.206 1.514 0.412 2.336 0.462 3.010 0.237 4.593-1.371 4.443-4.311-0.099-1.977-0.988-3.63-2.215-5.144-2.094-2.632-4.832-4.611-8.048-5.98-0.644-0.253-1.289-0.505-2.201-0.88 3.121-3.379 7.346-4.133 11.388-5.485-0.712-0.043-1.418-0.193-2.137-0.131-3.719 0.572-7.197 1.691-9.989 4.185-0.812 0.696-1.557 1.184-2.762 1.11-4.66-0.232-8.563 1.555-11.836 4.711-2.453 2.354-4.327 5.117-5.617 8.235-0.323 0.779-0.645 1.559-1.216 2.803-1.501-2.436-2.802-4.54-4.103-6.645-0.168 0.043-0.338 0.139-0.506 0.182-0.081 0.421-0.278 0.942-0.136 1.324 0.657 1.852 1.313 3.703 2.083 5.509 0.724 1.643 1.562 3.239 2.286 4.882 0.728 1.59 1.582 2.015 2.7 0.804 1.941-2.066 3.672-4.305 5.459-6.54 0.239-0.305 0.055-0.902 0.030-1.384-0.554 0.073-1.263-0.024-1.612 0.274-1.222 1.098-2.228 2.262-3.517 3.568zM25.908 9.939c5.314 1.231 9.328 3.927 11.73 8.709 0.486 1.042 0.847 2.343-0.188 3.079-0.69 0.491-2.011 0.517-2.936 0.353-3.529-0.748-6.151-2.827-8.293-5.569-1.475-1.955-1.845-4.002-0.313-6.573z"></path>
 </symbol>
 <symbol id="icon-basket-icon" viewBox="0 0 32 32">
   <path d="M1.5 12.8h29v-2.133h-29v2.133zM29.867 12.166v0.937h2.133v-0.937h-2.133zM26.423 29.867h-20.847v2.133h20.847v-2.133zM2.133 13.103v-0.937h-2.133v0.937h2.133zM6.178 30.238c-2.66-5.32-4.045-11.187-4.045-17.135h-2.133c0 6.28 1.461 12.474 4.271 18.091l1.907-0.956zM5.577 29.867c0.256 0 0.489 0.145 0.602 0.371l-1.907 0.956c0.121 0.242 0.308 0.446 0.538 0.588s0.496 0.218 0.767 0.218v-2.133zM25.822 30.238c0.056-0.112 0.142-0.205 0.248-0.271s0.229-0.1 0.354-0.1v2.133c0.555 0 1.058-0.312 1.306-0.806l-1.907-0.956zM29.867 13.103c0 5.948-1.387 11.814-4.045 17.135l1.907 0.956c2.809-5.617 4.271-11.811 4.271-18.091h-2.133zM30.5 12.8c-0.168 0-0.329-0.067-0.448-0.186s-0.186-0.28-0.186-0.448h2.133c0-0.398-0.158-0.779-0.439-1.061s-0.663-0.439-1.060-0.439v2.133zM1.5 10.667c-0.398 0-0.779 0.158-1.060 0.439s-0.439 0.663-0.439 1.061h2.133c0 0.168-0.067 0.329-0.186 0.448s-0.28 0.186-0.448 0.186v-2.133zM8.382 12.282l6.4-10.667-1.832-1.097-6.4 10.667 1.832 1.096zM17.218 1.615l6.4 10.667 1.83-1.096-6.4-10.667-1.83 1.097zM10.667 21.333h10.667v-2.133h-10.667v2.133z"></path>
 </symbol>
 <symbol id="icon-close-button" viewBox="0 0 32 32">
<path stroke-linejoin="miter" stroke-linecap="round" stroke-miterlimit="4" stroke-width="2" d="M8 8l8 8 8-8M8 24l8-8 8 8"></path>
</symbol>
<symbol id="icon-video-icon" viewBox="0 0 32 32">
<path d="M22.809 15.271c-0.019 0.197-0.138 0.412-0.414 0.631-2.703 2.145-5.406 4.29-8.109 6.434-0.577 0.458-1.947 0.565-1.947-0.513 0-3.969 0-7.938 0-11.906 0-0.975 1.47-1.215 2.058-0.818 2.703 1.824 5.406 3.648 8.109 5.472 0.31 0.209 0.377 0.459 0.302 0.7zM32 18.654c-0.857 20.541-35.471 16.286-31.715-5.337 1.576-9.073 9.11-13.845 17.388-13.27 9.318 0.647 14.158 9.123 14.326 18.471 0 0.024-0.015 0.043-0.018 0.066 0.003 0.025 0.020 0.042 0.019 0.070zM30.263 18.92c-0.141-6.617-2.487-13.763-8.542-16.608-8.024-3.77-17.479 0.676-19.518 9.838-1.824 8.194 2.232 15.459 9.654 18.087 7.911 2.801 17.973-1.607 18.406-11.318z"></path>
</symbol>
<symbol id="icon-bone-icon" viewBox="0 0 73 32">
<path d="M72.673 13.749c0.834-1.892 0.379-4.677 0-6.753-0.295-1.765-1.027-3.222-2.124-4.502s-2.718-1.886-4.247-2.251c-1.214-0.314-3.038-0.336-4.247 0s-1.168 1.335-2.124 2.251c-2.383 2.173-5.455 2.326-8.494 2.251h-29.731c-3.039 0.076-6.112-0.078-8.494-2.251-0.956-0.916-0.914-1.915-2.124-2.251s-3.034-0.314-4.247 0c-1.529 0.365-3.151 0.971-4.247 2.251s-1.828 2.737-2.124 4.502c-0.38 2.076-0.834 4.861 0 6.753 0.302 0.681 2.124 1.486 2.124 2.251s-1.821 1.57-2.124 2.251c-0.832 1.892-0.378 4.677 0 6.753 0.296 1.766 1.028 3.22 2.124 4.502s2.718 1.882 4.247 2.251c1.214 0.313 3.038 0.336 4.247 0s1.168-1.335 2.124-2.251c2.382-2.176 5.454-2.322 8.494-2.251h29.731c3.040-0.071 6.113 0.075 8.494 2.251 0.956 0.916 0.914 1.915 2.124 2.251s3.034 0.313 4.247 0c1.529-0.369 3.151-0.969 4.247-2.251s1.828-2.736 2.124-4.502c0.378-2.076 0.832-4.861 0-6.753-0.302-0.681-2.124-1.486-2.124-2.251s1.822-1.57 2.124-2.251z"></path>
</symbol>
</defs>
</svg>
