<svg width="182.004791" height="43.000000" viewBox="0 0 182.005 43" fill="none" xmlns="http://www.w3.org/2000/svg" xmlns:xlink="http://www.w3.org/1999/xlink">
	<desc>
			Created with Pixso.
	</desc>
	<defs/>
	<path id="Vector" d="M20.9067 24.9364C21.1506 29.8966 24.7507 30.5288 28.1069 34.6967C33.0723 40.6549 37.0674 38.8854 37.7461 34.5878C38.3876 30.4587 34.8962 27.5121 34.6656 23.0986C34.435 18.6851 37.717 14.6945 36.7149 10.7523C35.7128 6.81018 31.5772 6.18396 27.1791 13.4257C24.2099 18.4221 20.7874 20.017 20.9067 24.9364Z" fill="#FCB62A" fill-opacity="1.000000" fill-rule="nonzero"/>
	<path id="Vector" d="M13.3979 12.7095C16.209 14.9927 19.5552 14.1777 20.7454 11.6641C21.9354 9.15051 20.4972 4.74316 17.651 2.61926C14.8399 0.33606 11.4937 1.151 10.3036 3.66467C9.14856 6.01892 10.5869 10.4263 13.3979 12.7095Z" fill="#FF9F0E" fill-opacity="1.000000" fill-rule="evenodd"/>
	<path id="Vector" d="M6.44751 25.4381C9.76276 25.615 12.7786 23.3419 13.1492 20.025C13.4826 16.8768 11.0971 14.1082 7.6701 13.8949C4.35486 13.718 1.33905 15.991 0.968445 19.308C0.63501 22.4561 3.13226 25.2612 6.44751 25.4381Z" fill="#FCB62A" fill-opacity="1.000000" fill-rule="nonzero"/>
	<path id="Vector" d="M8.02448 41.2664C11.0372 41.3319 14.0455 38.7511 14.4587 35.3999C14.8342 32.2198 12.9043 28.6649 9.79065 28.5665C6.77795 28.501 3.76959 31.0818 3.35645 34.433C2.98096 37.613 5.01172 41.2008 8.02448 41.2664Z" fill="#FFAA00" fill-opacity="1.000000" fill-rule="nonzero"/>
	<path id="dogclub" d="M47.5648 33.532L47.5648 16.028L46.9248 12.828L47.5648 10.876L57.1008 10.876C58.6368 10.876 60.1088 11.0253 61.5168 11.324C62.9461 11.6013 64.2154 12.1347 65.3248 12.924C66.4554 13.7133 67.3408 14.844 67.9808 16.316C68.6421 17.788 68.9728 19.6973 68.9728 22.044C68.9728 24.3907 68.6421 26.3213 67.9808 27.836C67.3194 29.3293 66.4234 30.492 65.2928 31.324C64.1621 32.156 62.8821 32.732 61.4528 33.052C60.0448 33.372 58.5941 33.532 57.1008 33.532L47.5648 33.532ZM53.3888 28.412L57.1008 28.412C58.9781 28.412 60.4181 27.9213 61.4208 26.94C62.4234 25.9373 62.9248 24.3053 62.9248 22.044C62.9248 19.7827 62.4128 18.2147 61.3888 17.34C60.3861 16.444 58.9568 15.996 57.1008 15.996L53.3888 15.996L53.3888 28.412ZM82.3828 33.852C81.0174 33.852 79.6841 33.692 78.3828 33.372C77.1028 33.0307 75.9401 32.4333 74.8948 31.58C73.8708 30.7267 73.0494 29.5427 72.4308 28.028C71.8334 26.5133 71.5348 24.572 71.5348 22.204C71.5348 19.836 71.8334 17.8947 72.4308 16.38C73.0494 14.8653 73.8708 13.6813 74.8948 12.828C75.9401 11.9747 77.1028 11.388 78.3828 11.068C79.6841 10.7267 81.0174 10.556 82.3828 10.556C83.7481 10.556 85.0708 10.7267 86.3508 11.068C87.6521 11.4093 88.8148 12.0067 89.8388 12.86C90.8841 13.7133 91.7054 14.8973 92.3028 16.412C92.9214 17.9267 93.2308 19.8573 93.2308 22.204C93.2308 24.5507 92.9214 26.4813 92.3028 27.996C91.7054 29.5107 90.8841 30.6947 89.8388 31.548C88.8148 32.4013 87.6521 32.9987 86.3508 33.34C85.0708 33.6813 83.7481 33.852 82.3828 33.852ZM82.3828 28.412C83.9614 28.412 85.1561 27.9427 85.9668 27.004C86.7774 26.0653 87.1828 24.4653 87.1828 22.204C87.1828 19.9427 86.7774 18.3427 85.9668 17.404C85.1561 16.4653 83.9614 15.996 82.3828 15.996C80.8254 15.996 79.6414 16.476 78.8308 17.436C78.0201 18.396 77.6148 19.9853 77.6148 22.204C77.6148 24.4227 78.0201 26.012 78.8308 26.972C79.6414 27.932 80.8254 28.412 82.3828 28.412ZM107.913 33.852C106.27 33.852 104.713 33.692 103.241 33.372C101.79 33.0307 100.499 32.4333 99.3688 31.58C98.2594 30.7267 97.3848 29.5427 96.7448 28.028C96.1048 26.5133 95.7848 24.572 95.7848 22.204C95.7848 19.9213 96.1261 18.0333 96.8088 16.54C97.4914 15.0253 98.3981 13.8307 99.5288 12.956C100.681 12.0813 101.95 11.4627 103.337 11.1C104.745 10.7373 106.163 10.556 107.593 10.556C108.638 10.556 109.545 10.6093 110.313 10.716C111.081 10.8227 111.817 10.9613 112.521 11.132L116.873 13.66L114.633 18.62L107.561 16.124C106.537 16.124 105.587 16.3267 104.713 16.732C103.859 17.1373 103.166 17.788 102.633 18.684C102.121 19.5587 101.865 20.7427 101.865 22.236C101.865 24.6467 102.398 26.3427 103.465 27.324C104.553 28.284 106.035 28.764 107.913 28.764C108.873 28.764 109.619 28.7213 110.153 28.636C110.707 28.5293 111.134 28.444 111.433 28.38L111.433 25.948L107.369 25.948L107.369 21.212L117.545 21.212L117.897 23.132L117.193 25.788L117.193 32.508C116.958 32.5933 116.425 32.7427 115.593 32.956C114.782 33.1693 113.715 33.372 112.393 33.564C111.091 33.756 109.598 33.852 107.913 33.852ZM128.336 33.772C127.392 33.772 126.44 33.636 125.48 33.364C124.536 33.092 123.664 32.636 122.864 31.996C122.08 31.34 121.448 30.452 120.968 29.332C120.488 28.196 120.248 26.764 120.248 25.036C120.248 23.292 120.584 21.772 121.256 20.476C121.944 19.164 122.88 18.14 124.064 17.404C125.248 16.668 126.592 16.3 128.096 16.3C128.816 16.3 129.504 16.364 130.16 16.492C130.832 16.62 131.344 16.764 131.696 16.924L134.36 19.348L132.68 21.868L128.576 19.756C127.68 19.756 126.872 19.972 126.152 20.404C125.432 20.836 124.856 21.452 124.424 22.252C124.008 23.036 123.8 23.964 123.8 25.036C123.8 26.268 124.016 27.284 124.448 28.084C124.896 28.884 125.504 29.484 126.272 29.884C127.04 30.268 127.896 30.46 128.84 30.46C129.8 30.46 130.624 30.38 131.312 30.22C132 30.044 132.576 29.852 133.04 29.644C133.504 29.42 133.856 29.228 134.096 29.068L134.096 32.332C133.648 32.636 132.96 32.956 132.032 33.292C131.12 33.612 129.888 33.772 128.336 33.772ZM137.144 33.532L136.664 32.092L137.144 29.692L137.144 16.54L140.504 16.54L140.504 26.404L140.264 30.412L140.743 30.412L146 30.172L147.704 29.932L149.336 31.996L148.16 33.532L137.144 33.532ZM156.825 33.772C155.177 33.772 153.881 33.5 152.937 32.956C152.009 32.412 151.345 31.612 150.945 30.556C150.561 29.484 150.369 28.18 150.369 26.644L150.369 20.404L150.393 17.98L150.369 16.54L153.777 16.54L153.777 26.884C153.777 28.004 154.001 28.916 154.449 29.62C154.897 30.308 155.689 30.652 156.825 30.652C157.961 30.652 158.761 30.332 159.225 29.692C159.705 29.036 159.945 28.1 159.945 26.884L159.945 16.54L163.281 16.54L163.281 26.644C163.281 28.148 163.089 29.436 162.705 30.508C162.337 31.564 161.681 32.372 160.737 32.932C159.809 33.492 158.505 33.772 156.825 33.772ZM166.394 33.532L166.394 20.38L165.914 17.98L166.394 16.54L172.634 16.54C173.85 16.54 174.898 16.684 175.778 16.972C176.674 17.244 177.37 17.692 177.866 18.316C178.362 18.94 178.61 19.772 178.61 20.812C178.61 21.452 178.498 22.06 178.274 22.636C178.066 23.196 177.706 23.668 177.194 24.052C178.202 24.404 178.97 24.932 179.498 25.636C180.026 26.34 180.29 27.276 180.29 28.444C180.29 30.22 179.794 31.516 178.802 32.332C177.81 33.132 176.314 33.532 174.314 33.532L166.394 33.532ZM169.754 23.38L173.066 23.38C174.41 23.38 175.082 22.788 175.082 21.604C175.082 21.012 174.946 20.54 174.674 20.188C174.402 19.836 173.866 19.66 173.066 19.66L169.754 19.66L169.754 23.38ZM169.754 30.412L174.074 30.412C174.922 30.412 175.538 30.22 175.922 29.836C176.322 29.452 176.522 28.916 176.522 28.228C176.522 27.572 176.306 27.076 175.874 26.74C175.458 26.404 174.778 26.236 173.834 26.236L169.754 26.236L169.754 30.412Z" fill="#FF9F0E" fill-opacity="1.000000" fill-rule="evenodd"/>
</svg>
